<svg width="200" height="200" viewBox="0 0 200 200" fill="none" xmlns="http://www.w3.org/2000/svg">
<rect width="200" height="200" fill="#D8D2C1"/>
<path d="M70.8795 109.727C75.1271 109.727 79.0481 108.316 82.2069 105.873L56.2844 80.031C53.8337 83.1256 52.4177 87.0343 52.4177 91.3232C52.3633 101.475 60.6411 109.727 70.8795 109.727Z" fill="#406B59"/>
<path d="M147.994 91.2686C147.994 87.0343 146.578 83.1256 144.127 79.9767L118.204 105.818C121.309 108.261 125.23 109.672 129.532 109.672C139.716 109.727 147.994 101.475 147.994 91.2686Z" fill="#406B59"/>
<path d="M161.064 63.2019L149.573 74.6569C153.385 79.2169 155.673 84.9715 155.673 91.3778C155.673 105.764 143.964 117.436 129.532 117.436C123.16 117.436 117.333 115.156 112.758 111.356L100.178 123.896L87.5981 111.356C83.0236 115.156 77.2509 117.436 70.8247 117.436C56.3929 117.436 44.6842 105.764 44.6842 91.3778C44.6842 85.0258 46.9716 79.2169 50.7838 74.6569L44.9022 68.7937L39.2928 63.2019C32.7578 73.951 29 86.4918 29 99.9553C29 139.151 60.8585 170.856 100.124 170.856C139.389 170.856 171.248 139.097 171.248 99.9553C171.357 86.4376 167.599 73.8968 161.064 63.2019Z" fill="#406B59"/>
<path d="M151.643 50.9867C138.736 37.469 120.437 29 100.178 29C79.9194 29 61.6757 37.469 48.7143 50.9867C46.9717 52.8327 45.2836 54.7872 43.7041 56.7957L100.124 113.038L156.544 56.7414C155.128 54.7869 153.44 52.7784 151.643 50.9867ZM100.178 38.229C116.843 38.229 132.31 44.6351 143.909 56.3072L100.178 99.9007L56.4475 56.3072C68.1018 44.6351 83.5139 38.229 100.178 38.229Z" fill="#406B59"/>
</svg>
